<svg width="107" height="40" viewBox="0 0 107 40" fill="none" xmlns="http://www.w3.org/2000/svg">
<g clip-path="url(#clip0_1105_9173)">
<path d="M53.2939 13.0474L58.3821 12.7235C58.4931 13.5623 58.7176 14.201 59.0556 14.6394C59.6079 15.35 60.395 15.7053 61.4169 15.7053C62.1794 15.7053 62.7678 15.5241 63.182 15.1616C63.3716 15.0111 63.5257 14.8194 63.6329 14.6007C63.74 14.3819 63.7976 14.1416 63.8013 13.8974C63.7982 13.6632 63.7446 13.4326 63.6443 13.2217C63.544 13.0107 63.3994 12.8246 63.2207 12.6763C62.8336 12.3178 61.9207 11.9782 60.482 11.6575C58.1363 11.1236 56.4635 10.4129 55.4635 9.52565C54.9769 9.11224 54.5883 8.59298 54.3266 8.00642C54.065 7.41986 53.9369 6.78105 53.9519 6.13741C53.9556 5.22785 54.225 4.3398 54.7261 3.58544C55.2984 2.73523 56.1067 2.07658 57.0486 1.69306C58.0808 1.23371 59.5001 1.00403 61.3065 1.00403C63.5181 1.00403 65.2045 1.4215 66.3657 2.25646C67.527 3.09141 68.2179 4.41843 68.4386 6.23753L63.3968 6.53592C63.2678 5.75069 62.9865 5.17617 62.553 4.81235C62.1194 4.44853 61.5259 4.26728 60.7724 4.26859C60.1511 4.26859 59.6827 4.40404 59.3692 4.67101C59.2211 4.78652 59.1014 4.93525 59.0194 5.10554C58.9375 5.27583 58.8956 5.46306 58.8969 5.65254C58.9016 5.79958 58.9389 5.94367 59.0059 6.07415C59.0729 6.20463 59.1679 6.31816 59.284 6.40635C59.5356 6.63799 60.1337 6.85393 61.0782 7.05416C63.4161 7.56456 65.0935 8.08149 66.1103 8.60497C67.127 9.12846 67.8625 9.77692 68.3167 10.5504C68.7802 11.335 69.0194 12.2349 69.0076 13.1494C69.0132 14.2569 68.6931 15.3408 68.0883 16.2628C67.4588 17.2242 66.5632 17.9754 65.5142 18.4222C64.411 18.913 63.0213 19.1584 61.3452 19.1584C58.4021 19.1584 56.3635 18.5838 55.2293 17.4348C54.0951 16.2858 53.45 14.8233 53.2939 13.0474ZM1.21351 18.8639V1.30045H10.1281C11.7809 1.30045 13.0441 1.44375 13.9176 1.73036C14.7781 2.00911 15.522 2.57154 16.0311 3.32828C16.5853 4.16822 16.8674 5.16253 16.8382 6.17275C16.8606 7.05432 16.6466 7.92553 16.2189 8.69331C15.8084 9.40506 15.2272 9.99999 14.5292 10.4228C13.9425 10.751 13.3092 10.9854 12.6519 11.1177C13.1437 11.2646 13.6123 11.4821 14.0434 11.7635C14.3639 12.0337 14.6522 12.3407 14.9028 12.6783C15.1846 13.0139 15.4342 13.3761 15.6479 13.76L18.2375 18.8639H12.1932L9.33649 13.491C8.97392 12.7961 8.65135 12.3446 8.36878 12.1365C7.98372 11.8659 7.525 11.7238 7.05656 11.7302H6.58045V18.8639H1.21351ZM6.58045 8.41259H8.84102C9.31943 8.37637 9.79362 8.29621 10.2578 8.1731C10.6046 8.10561 10.9139 7.90881 11.1248 7.62148C11.3478 7.33125 11.4666 6.97256 11.4616 6.60462C11.4761 6.36035 11.4358 6.11592 11.3436 5.88978C11.2514 5.66363 11.1097 5.46169 10.9293 5.29919C10.5758 4.99557 9.91067 4.84376 8.93392 4.84376H6.58045V8.41259ZM0 33.893L5.08823 33.5711C5.1992 34.41 5.42371 35.0486 5.76176 35.487C6.30755 36.1977 7.09656 36.553 8.12879 36.553C8.89135 36.553 9.47971 36.3711 9.8939 36.0072C10.0836 35.8567 10.2376 35.6651 10.3448 35.4463C10.452 35.2276 10.5095 34.9873 10.5132 34.743C10.5098 34.5089 10.4561 34.2784 10.3558 34.0675C10.2555 33.8566 10.1111 33.6705 9.9326 33.522C9.54552 33.1634 8.63264 32.8245 7.19398 32.5052C4.84824 31.9686 3.17539 31.258 2.17542 30.3733C1.68888 29.9594 1.30038 29.4398 1.03873 28.8529C0.777065 28.266 0.648943 27.627 0.663851 26.9831C0.668135 26.0736 0.937485 25.1857 1.43802 24.4311C2.01028 23.5809 2.81864 22.9223 3.76053 22.5387C4.79276 22.0794 6.21207 21.8497 8.01847 21.8497C10.23 21.8497 11.9164 22.2672 13.0777 23.1021C14.2389 23.9371 14.9299 25.2641 15.1505 27.0832L10.1184 27.3835C9.98938 26.5983 9.70809 26.0232 9.27456 25.658C8.84102 25.2929 8.24814 25.1136 7.4959 25.1202C6.87528 25.1202 6.40755 25.251 6.09272 25.5128C5.94462 25.6283 5.82491 25.777 5.74298 25.9473C5.66105 26.1176 5.61912 26.3048 5.62048 26.4943C5.62489 26.6417 5.66198 26.7861 5.72899 26.917C5.796 27.0478 5.89122 27.1617 6.00756 27.2501C6.25917 27.4817 6.85721 27.697 7.8017 27.8959C10.1397 28.4063 11.8171 28.9232 12.8338 29.4467C13.8505 29.9702 14.586 30.6187 15.0402 31.3921C15.5034 32.1768 15.7426 33.0766 15.7311 33.9912C15.7369 35.0987 15.4168 36.1827 14.8118 37.1046C14.1823 38.0659 13.2868 38.8172 12.2377 39.264C11.1345 39.7547 9.74487 40.0001 8.06879 40.0001C5.12565 40.0001 3.087 39.4256 1.95284 38.2765C0.818685 37.1275 0.167737 35.6663 0 33.893ZM31.5474 32.5169L36.235 33.9539C35.9758 35.1601 35.4686 36.2972 34.7467 37.2911C34.0888 38.1693 33.2236 38.8653 32.2306 39.315C31.2268 39.7691 29.9494 39.9962 28.3985 39.9962C26.5173 39.9962 24.9805 39.7194 23.7883 39.1658C22.5961 38.6122 21.5639 37.6366 20.6916 36.2389C19.8246 34.8425 19.3917 33.0555 19.393 30.8778C19.393 27.9751 20.1542 25.7431 21.6768 24.1818C23.1993 22.6205 25.3541 21.8405 28.1411 21.8419C30.323 21.8419 32.0371 22.2894 33.2835 23.1846C34.5299 24.0797 35.4564 25.4539 36.0628 27.307L31.3403 28.3729C31.2295 27.9551 31.0544 27.5577 30.8217 27.1951C30.5356 26.7923 30.1596 26.464 29.7243 26.2371C29.2731 26.0091 28.7747 25.894 28.2708 25.9014C27.0592 25.9014 26.1308 26.3961 25.4857 27.3855C24.9954 28.1197 24.7509 29.272 24.7522 30.8425C24.7522 32.7872 25.0438 34.1208 25.627 34.8432C26.2102 35.5656 27.0289 35.9261 28.083 35.9248C29.1049 35.9248 29.8791 35.6336 30.4055 35.0512C30.932 34.4689 31.3126 33.6241 31.5474 32.5169ZM40.3556 22.1461H45.7031V28.2866H51.5481V22.1461H56.9189V39.7017H51.5481V32.6053H45.7031V39.7076H40.3556V22.1461ZM60.2479 30.9347C60.2479 28.0713 61.0349 25.8399 62.6091 24.2407C64.1832 22.6415 66.3767 21.8432 69.1895 21.8458C72.0694 21.8458 74.2887 22.631 75.8474 24.2014C77.4061 25.7719 78.1873 27.9685 78.1912 30.7914C78.1912 32.8448 77.8506 34.5278 77.1693 35.8404C76.5063 37.1357 75.4791 38.2023 74.2178 38.9047C72.9275 39.635 71.3237 40.0001 69.4063 40.0001C67.4554 40.0001 65.8425 39.6847 64.5677 39.0539C63.258 38.3956 62.1742 37.3524 61.4575 36.0603C60.6498 34.6966 60.2466 32.9881 60.2479 30.9347ZM65.5954 30.9602C65.5954 32.7335 65.918 34.0069 66.5632 34.7803C67.2083 35.5538 68.0921 35.9405 69.2147 35.9405C70.3643 35.9405 71.254 35.5616 71.8836 34.8039C72.5133 34.0462 72.8281 32.6851 72.8281 30.7207C72.8281 29.0679 72.4991 27.8599 71.8411 27.0969C71.183 26.334 70.2914 25.9531 69.1663 25.9544C68.6771 25.9366 68.1903 26.0312 67.7422 26.231C67.2941 26.4309 66.8963 26.731 66.5786 27.1087C65.9245 27.8939 65.5967 29.1778 65.5954 30.9602Z" fill="#001448"/>
<path d="M75.9229 30.9346C75.9229 28.0712 76.71 25.8398 78.2841 24.2406C79.8582 22.6414 82.0517 21.8431 84.8646 21.8457C87.747 21.8457 89.967 22.6309 91.5244 24.2013C93.0817 25.7718 93.8604 27.9691 93.8604 30.7933C93.8604 32.8466 93.5204 34.5296 92.8404 35.8423C92.1769 37.1372 91.1498 38.2036 89.8889 38.9066C88.5986 39.6368 86.9948 40.002 85.0774 40.002C83.1252 40.002 81.5124 39.6866 80.2389 39.0558C78.929 38.397 77.8447 37.3539 77.1267 36.0621C76.3242 34.6971 75.9229 32.988 75.9229 30.9346ZM81.2724 30.9601C81.2724 32.7334 81.595 34.0068 82.2401 34.7802C82.8853 35.5537 83.7704 35.9411 84.8955 35.9424C86.0452 35.9424 86.9348 35.5635 87.5645 34.8058C88.1941 34.048 88.509 32.687 88.509 30.7226C88.509 29.0697 88.1806 27.8618 87.5238 27.0988C86.8671 26.3358 85.9755 25.955 84.8491 25.9563C84.359 25.9372 83.8711 26.0309 83.4219 26.2305C82.9727 26.4301 82.574 26.7303 82.2556 27.1086C81.5988 27.8938 81.2711 29.1777 81.2724 30.9601Z" fill="#001448"/>
<path d="M93.303 22.146H98.6525V35.379H107V39.6977H93.303V22.146Z" fill="#001448"/>
</g>
<defs>
<clipPath id="clip0_1105_9173">
<rect width="107" height="40" fill="white"/>
</clipPath>
</defs>
</svg>
