<svg width="107" height="39" viewBox="0 0 107 39" fill="none" xmlns="http://www.w3.org/2000/svg">
<g clip-path="url(#clip0_1103_5069)">
<path d="M53.2939 12.0474L58.3821 11.7235C58.4931 12.5623 58.7176 13.201 59.0556 13.6394C59.6079 14.35 60.395 14.7053 61.4169 14.7053C62.1794 14.7053 62.7678 14.5241 63.182 14.1616C63.3716 14.0111 63.5257 13.8194 63.6329 13.6007C63.74 13.3819 63.7976 13.1416 63.8013 12.8974C63.7982 12.6632 63.7446 12.4326 63.6443 12.2217C63.544 12.0107 63.3994 11.8246 63.2207 11.6763C62.8336 11.3178 61.9207 10.9782 60.482 10.6575C58.1363 10.1236 56.4635 9.41295 55.4635 8.52565C54.9769 8.11224 54.5883 7.59298 54.3266 7.00642C54.065 6.41986 53.9369 5.78105 53.9519 5.13741C53.9556 4.22785 54.225 3.3398 54.7261 2.58544C55.2984 1.73523 56.1067 1.07658 57.0486 0.69306C58.0808 0.233706 59.5001 0.00402832 61.3065 0.00402832C63.5181 0.00402832 65.2045 0.421504 66.3657 1.25646C67.527 2.09141 68.2179 3.41843 68.4386 5.23753L63.3968 5.53592C63.2678 4.75069 62.9865 4.17617 62.553 3.81235C62.1194 3.44853 61.5259 3.26728 60.7724 3.26859C60.1511 3.26859 59.6827 3.40404 59.3692 3.67101C59.2211 3.78652 59.1014 3.93525 59.0194 4.10554C58.9375 4.27583 58.8956 4.46306 58.8969 4.65254C58.9016 4.79958 58.9389 4.94367 59.0059 5.07415C59.0729 5.20463 59.1679 5.31816 59.284 5.40635C59.5356 5.63799 60.1337 5.85393 61.0782 6.05416C63.4161 6.56456 65.0935 7.08149 66.1103 7.60497C67.127 8.12846 67.8625 8.77692 68.3167 9.55036C68.7802 10.335 69.0194 11.2349 69.0076 12.1494C69.0132 13.2569 68.6931 14.3408 68.0883 15.2628C67.4588 16.2242 66.5632 16.9754 65.5142 17.4222C64.411 17.913 63.0213 18.1584 61.3452 18.1584C58.4021 18.1584 56.3635 17.5838 55.2293 16.4348C54.0951 15.2858 53.45 13.8233 53.2939 12.0474ZM1.21351 17.8639V0.30045H10.1281C11.7809 0.30045 13.0441 0.443752 13.9176 0.730358C14.7781 1.00911 15.522 1.57154 16.0311 2.32828C16.5853 3.16822 16.8674 4.16253 16.8382 5.17275C16.8606 6.05432 16.6466 6.92553 16.2189 7.69331C15.8084 8.40506 15.2272 8.99999 14.5292 9.42276C13.9425 9.75105 13.3092 9.98545 12.6519 10.1177C13.1437 10.2646 13.6123 10.4821 14.0434 10.7635C14.3639 11.0337 14.6522 11.3407 14.9028 11.6783C15.1846 12.0139 15.4342 12.3761 15.6479 12.76L18.2375 17.8639H12.1932L9.33649 12.491C8.97392 11.7961 8.65135 11.3446 8.36878 11.1365C7.98372 10.8659 7.525 10.7238 7.05656 10.7302H6.58045V17.8639H1.21351ZM6.58045 7.41259H8.84102C9.31943 7.37637 9.79362 7.29621 10.2578 7.1731C10.6046 7.10561 10.9139 6.90881 11.1248 6.62148C11.3478 6.33125 11.4666 5.97256 11.4616 5.60462C11.4761 5.36035 11.4358 5.11592 11.3436 4.88978C11.2514 4.66363 11.1097 4.46169 10.9293 4.29919C10.5758 3.99557 9.91067 3.84376 8.93392 3.84376H6.58045V7.41259ZM0 32.893L5.08823 32.5711C5.1992 33.41 5.42371 34.0486 5.76176 34.487C6.30755 35.1977 7.09656 35.553 8.12879 35.553C8.89135 35.553 9.47971 35.3711 9.8939 35.0072C10.0836 34.8567 10.2376 34.6651 10.3448 34.4463C10.452 34.2276 10.5095 33.9873 10.5132 33.743C10.5098 33.5089 10.4561 33.2784 10.3558 33.0675C10.2555 32.8566 10.1111 32.6705 9.9326 32.522C9.54552 32.1634 8.63264 31.8245 7.19398 31.5052C4.84824 30.9686 3.17539 30.258 2.17542 29.3733C1.68888 28.9594 1.30038 28.4398 1.03873 27.8529C0.777065 27.266 0.648943 26.627 0.663851 25.9831C0.668135 25.0736 0.937485 24.1857 1.43802 23.4311C2.01028 22.5809 2.81864 21.9223 3.76053 21.5387C4.79276 21.0794 6.21207 20.8497 8.01847 20.8497C10.23 20.8497 11.9164 21.2672 13.0777 22.1021C14.2389 22.9371 14.9299 24.2641 15.1505 26.0832L10.1184 26.3835C9.98938 25.5983 9.70809 25.0232 9.27456 24.658C8.84102 24.2929 8.24814 24.1136 7.4959 24.1202C6.87528 24.1202 6.40755 24.251 6.09272 24.5128C5.94462 24.6283 5.82491 24.777 5.74298 24.9473C5.66105 25.1176 5.61912 25.3048 5.62048 25.4943C5.62489 25.6417 5.66198 25.7861 5.72899 25.917C5.796 26.0478 5.89122 26.1617 6.00756 26.2501C6.25917 26.4817 6.85721 26.697 7.8017 26.8959C10.1397 27.4063 11.8171 27.9232 12.8338 28.4467C13.8505 28.9702 14.586 29.6187 15.0402 30.3921C15.5034 31.1768 15.7426 32.0766 15.7311 32.9912C15.7369 34.0987 15.4168 35.1827 14.8118 36.1046C14.1823 37.0659 13.2868 37.8172 12.2377 38.264C11.1345 38.7547 9.74487 39.0001 8.06879 39.0001C5.12565 39.0001 3.087 38.4256 1.95284 37.2765C0.818685 36.1275 0.167737 34.6663 0 32.893ZM31.5474 31.5169L36.235 32.9539C35.9758 34.1601 35.4686 35.2972 34.7467 36.2911C34.0888 37.1693 33.2236 37.8653 32.2306 38.315C31.2268 38.7691 29.9494 38.9962 28.3985 38.9962C26.5173 38.9962 24.9805 38.7194 23.7883 38.1658C22.5961 37.6122 21.5639 36.6366 20.6916 35.2389C19.8246 33.8425 19.3917 32.0555 19.393 29.8778C19.393 26.9751 20.1542 24.7431 21.6768 23.1818C23.1993 21.6205 25.3541 20.8405 28.1411 20.8419C30.323 20.8419 32.0371 21.2894 33.2835 22.1846C34.5299 23.0797 35.4564 24.4539 36.0628 26.307L31.3403 27.3729C31.2295 26.9551 31.0544 26.5577 30.8217 26.1951C30.5356 25.7923 30.1596 25.464 29.7243 25.2371C29.2731 25.0091 28.7747 24.894 28.2708 24.9014C27.0592 24.9014 26.1308 25.3961 25.4857 26.3855C24.9954 27.1197 24.7509 28.272 24.7522 29.8425C24.7522 31.7872 25.0438 33.1208 25.627 33.8432C26.2102 34.5656 27.0289 34.9261 28.083 34.9248C29.1049 34.9248 29.8791 34.6336 30.4055 34.0512C30.932 33.4689 31.3126 32.6241 31.5474 31.5169ZM40.3556 21.1461H45.7031V27.2866H51.5481V21.1461H56.9189V38.7017H51.5481V31.6053H45.7031V38.7076H40.3556V21.1461ZM60.2479 29.9347C60.2479 27.0713 61.0349 24.8399 62.6091 23.2407C64.1832 21.6415 66.3767 20.8432 69.1895 20.8458C72.0694 20.8458 74.2887 21.631 75.8474 23.2014C77.4061 24.7719 78.1873 26.9685 78.1912 29.7914C78.1912 31.8448 77.8506 33.5278 77.1693 34.8404C76.5063 36.1357 75.4791 37.2023 74.2178 37.9047C72.9275 38.635 71.3237 39.0001 69.4063 39.0001C67.4554 39.0001 65.8425 38.6847 64.5677 38.0539C63.258 37.3956 62.1742 36.3524 61.4575 35.0603C60.6498 33.6966 60.2466 31.9881 60.2479 29.9347ZM65.5954 29.9602C65.5954 31.7335 65.918 33.0069 66.5632 33.7803C67.2083 34.5538 68.0921 34.9405 69.2147 34.9405C70.3643 34.9405 71.254 34.5616 71.8836 33.8039C72.5133 33.0462 72.8281 31.6851 72.8281 29.7207C72.8281 28.0679 72.4991 26.8599 71.8411 26.0969C71.183 25.334 70.2914 24.9531 69.1663 24.9544C68.6771 24.9366 68.1903 25.0312 67.7422 25.231C67.2941 25.4309 66.8963 25.731 66.5786 26.1087C65.9245 26.8939 65.5967 28.1778 65.5954 29.9602Z" fill="white"/>
<path d="M75.9229 29.9347C75.9229 27.0712 76.71 24.8399 78.2841 23.2406C79.8582 21.6414 82.0517 20.8431 84.8646 20.8457C87.747 20.8457 89.967 21.6309 91.5244 23.2014C93.0817 24.7718 93.8604 26.9691 93.8604 29.7933C93.8604 31.8467 93.5204 33.5297 92.8404 34.8423C92.1769 36.1372 91.1498 37.2036 89.8889 37.9066C88.5986 38.6369 86.9948 39.002 85.0774 39.002C83.1252 39.002 81.5124 38.6866 80.2389 38.0558C78.929 37.397 77.8447 36.354 77.1267 35.0621C76.3242 33.6972 75.9229 31.988 75.9229 29.9347ZM81.2724 29.9602C81.2724 31.7335 81.595 33.0068 82.2401 33.7803C82.8853 34.5537 83.7704 34.9411 84.8955 34.9424C86.0452 34.9424 86.9348 34.5635 87.5645 33.8058C88.1941 33.0481 88.509 31.687 88.509 29.7226C88.509 28.0698 88.1806 26.8618 87.5238 26.0988C86.8671 25.3359 85.9755 24.955 84.8491 24.9563C84.359 24.9372 83.8711 25.031 83.4219 25.2305C82.9727 25.4301 82.574 25.7303 82.2556 26.1087C81.5988 26.8939 81.2711 28.1777 81.2724 29.9602Z" fill="white"/>
<path d="M93.303 21.146H98.6525V34.3789H107V38.6977H93.303V21.146Z" fill="white"/>
</g>
<defs>
<clipPath id="clip0_1103_5069">
<rect width="107" height="39" fill="white"/>
</clipPath>
</defs>
</svg>
