<svg width="107" height="40" viewBox="0 0 107 40" fill="none" xmlns="http://www.w3.org/2000/svg">
<g clip-path="url(#clip0_40_144)">
<path d="M53.2939 13.0472L58.3821 12.7233C58.4931 13.5622 58.7176 14.2009 59.0556 14.6393C59.6079 15.3499 60.395 15.7052 61.4169 15.7052C62.1794 15.7052 62.7678 15.524 63.182 15.1615C63.3716 15.0109 63.5257 14.8193 63.6329 14.6005C63.74 14.3818 63.7976 14.1415 63.8013 13.8972C63.7982 13.6631 63.7446 13.4325 63.6443 13.2215C63.544 13.0106 63.3994 12.8245 63.2207 12.6762C62.8336 12.3176 61.9207 11.978 60.482 11.6574C58.1363 11.1235 56.4635 10.4128 55.4635 9.52552C54.9769 9.11212 54.5883 8.59286 54.3266 8.0063C54.065 7.41974 53.9369 6.78093 53.9519 6.13729C53.9556 5.22772 54.225 4.33967 54.7261 3.58532C55.2984 2.73511 56.1067 2.07646 57.0486 1.69294C58.0808 1.23358 59.5001 1.00391 61.3065 1.00391C63.5181 1.00391 65.2045 1.42138 66.3657 2.25633C67.527 3.09129 68.2179 4.41831 68.4386 6.23741L63.3968 6.53579C63.2678 5.75057 62.9865 5.17605 62.553 4.81223C62.1194 4.44841 61.5259 4.26716 60.7724 4.26847C60.1511 4.26847 59.6827 4.40392 59.3692 4.67089C59.2211 4.7864 59.1014 4.93513 59.0194 5.10542C58.9375 5.27571 58.8956 5.46294 58.8969 5.65242C58.9016 5.79946 58.9389 5.94355 59.0059 6.07402C59.0729 6.2045 59.1679 6.31804 59.284 6.40623C59.5356 6.63787 60.1337 6.85381 61.0782 7.05404C63.4162 7.56443 65.0935 8.08137 66.1103 8.60485C67.127 9.12833 67.8625 9.7768 68.3167 10.5502C68.7802 11.3348 69.0194 12.2347 69.0076 13.1493C69.0132 14.2568 68.6931 15.3407 68.0883 16.2627C67.4588 17.2241 66.5632 17.9753 65.5142 18.4221C64.411 18.9129 63.0213 19.1582 61.3452 19.1582C58.4021 19.1582 56.3635 18.5837 55.2293 17.4347C54.0951 16.2856 53.45 14.8232 53.2939 13.0472V13.0472ZM1.21351 18.8638V1.30033H10.1281C11.7809 1.30033 13.0441 1.44363 13.9176 1.73024C14.7781 2.00898 15.522 2.57142 16.0311 3.32816C16.5853 4.1681 16.8674 5.16241 16.8382 6.17263C16.8606 7.0542 16.6466 7.9254 16.2189 8.69319C15.8084 9.40494 15.2272 9.99986 14.5292 10.4226C13.9425 10.7509 13.3092 10.9853 12.6519 11.1176C13.1437 11.2645 13.6123 11.482 14.0434 11.7634C14.3639 12.0335 14.6522 12.3405 14.9028 12.6782C15.1846 13.0138 15.4342 13.376 15.6479 13.7598L18.2375 18.8638H12.1932L9.33649 13.4909C8.97392 12.796 8.65135 12.3445 8.36878 12.1364C7.98372 11.8657 7.525 11.7237 7.05656 11.73H6.58045V18.8638H1.21351ZM6.58045 8.41247H8.84102C9.31943 8.37624 9.79362 8.29608 10.2578 8.17298C10.6046 8.10549 10.9139 7.90869 11.1248 7.62136C11.3478 7.33113 11.4666 6.97244 11.4616 6.6045C11.4761 6.36023 11.4358 6.1158 11.3436 5.88965C11.2514 5.66351 11.1097 5.46157 10.9293 5.29907C10.5758 4.99545 9.91067 4.84364 8.93392 4.84364H6.58045V8.41247ZM0 33.8929L5.08823 33.571C5.1992 34.4099 5.42371 35.0485 5.76176 35.4869C6.30755 36.1975 7.09656 36.5529 8.12879 36.5529C8.89134 36.5529 9.47971 36.3709 9.8939 36.0071C10.0836 35.8566 10.2376 35.665 10.3448 35.4462C10.452 35.2275 10.5095 34.9872 10.5132 34.7429C10.5098 34.5088 10.4561 34.2783 10.3558 34.0674C10.2555 33.8565 10.1111 33.6703 9.9326 33.5219C9.54552 33.1633 8.63264 32.8244 7.19398 32.505C4.84824 31.9685 3.17539 31.2578 2.17542 30.3732C1.68888 29.9593 1.30038 29.4396 1.03873 28.8528C0.777065 28.2659 0.648943 27.6269 0.663851 26.983C0.668135 26.0735 0.937485 25.1856 1.43802 24.431C2.01028 23.5808 2.81864 22.9221 3.76053 22.5386C4.79276 22.0793 6.21207 21.8496 8.01847 21.8496C10.23 21.8496 11.9164 22.2671 13.0777 23.102C14.2389 23.937 14.9299 25.264 15.1505 27.0831L10.1184 27.3834C9.98938 26.5982 9.70809 26.023 9.27456 25.6579C8.84102 25.2928 8.24814 25.1135 7.4959 25.12C6.87528 25.12 6.40755 25.2509 6.09272 25.5126C5.94462 25.6281 5.82491 25.7769 5.74298 25.9472C5.66105 26.1175 5.61912 26.3047 5.62048 26.4942C5.62489 26.6415 5.66198 26.786 5.72899 26.9169C5.796 27.0477 5.89122 27.1615 6.00756 27.2499C6.25917 27.4816 6.85721 27.6969 7.8017 27.8958C10.1397 28.4062 11.8171 28.9231 12.8338 29.4466C13.8505 29.9701 14.586 30.6185 15.0402 31.392C15.5034 32.1767 15.7426 33.0765 15.7311 33.9911C15.7369 35.0985 15.4168 36.1826 14.8118 37.1045C14.1823 38.0658 13.2868 38.817 12.2377 39.2638C11.1345 39.7546 9.74487 40 8.06879 40C5.12565 40 3.087 39.4255 1.95284 38.2764C0.818685 37.1274 0.167737 35.6662 0 33.8929ZM31.5474 32.5168L36.235 33.9538C35.9758 35.1599 35.4686 36.2971 34.7467 37.291C34.0888 38.1692 33.2236 38.8652 32.2306 39.3149C31.2268 39.769 29.9494 39.9961 28.3985 39.9961C26.5173 39.9961 24.9805 39.7193 23.7883 39.1657C22.5961 38.6121 21.5639 37.6365 20.6916 36.2388C19.8246 34.8424 19.3917 33.0553 19.393 30.8777C19.393 27.975 20.1542 25.743 21.6768 24.1817C23.1993 22.6204 25.3541 21.8404 28.1411 21.8417C30.323 21.8417 32.0371 22.2893 33.2835 23.1845C34.5299 24.0796 35.4564 25.4537 36.0628 27.3069L31.3403 28.3728C31.2295 27.955 31.0544 27.5575 30.8217 27.195C30.5356 26.7922 30.1596 26.4639 29.7243 26.237C29.2731 26.009 28.7747 25.8939 28.2708 25.9013C27.0592 25.9013 26.1308 26.396 25.4857 27.3854C24.9954 28.1196 24.7509 29.2719 24.7522 30.8423C24.7522 32.7871 25.0438 34.1206 25.627 34.843C26.2102 35.5654 27.0289 35.926 28.083 35.9247C29.1049 35.9247 29.8791 35.6335 30.4055 35.0511C30.932 34.4687 31.3126 33.624 31.5474 32.5168V32.5168ZM40.3556 22.146H45.7031V28.2864H51.5481V22.146H56.9189V39.7016H51.5481V32.6052H45.7031V39.7075H40.3556V22.146ZM60.2479 30.9346C60.2479 28.0712 61.0349 25.8398 62.6091 24.2406C64.1832 22.6413 66.3767 21.843 69.1895 21.8457C72.0694 21.8457 74.2887 22.6309 75.8474 24.2013C77.4061 25.7718 78.1873 27.9684 78.1912 30.7913C78.1912 32.8446 77.8506 34.5276 77.1693 35.8403C76.5063 37.1356 75.4791 38.2021 74.2178 38.9046C72.9275 39.6348 71.3237 40 69.4063 40C67.4554 40 65.8425 39.6846 64.5677 39.0538C63.258 38.3955 62.1742 37.3523 61.4575 36.0601C60.6498 34.6965 60.2466 32.9879 60.2479 30.9346V30.9346ZM65.5954 30.9601C65.5954 32.7334 65.918 34.0068 66.5632 34.7802C67.2083 35.5537 68.0921 35.9404 69.2147 35.9404C70.3643 35.9404 71.254 35.5615 71.8836 34.8038C72.5133 34.046 72.8281 32.685 72.8281 30.7206C72.8281 29.0677 72.4991 27.8598 71.8411 27.0968C71.183 26.3338 70.2914 25.953 69.1663 25.9543C68.6771 25.9365 68.1903 26.031 67.7422 26.2309C67.2941 26.4308 66.8963 26.7308 66.5786 27.1086C65.9245 27.8938 65.5967 29.1777 65.5954 30.9601V30.9601Z" fill="black"/>
<path d="M75.9229 30.9347C75.9229 28.0712 76.71 25.8399 78.2841 24.2406C79.8582 22.6414 82.0517 21.8431 84.8646 21.8457C87.747 21.8457 89.967 22.6309 91.5244 24.2014C93.0817 25.7718 93.8604 27.9691 93.8604 30.7933C93.8604 32.8467 93.5204 34.5297 92.8404 35.8423C92.1769 37.1372 91.1498 38.2036 89.8889 38.9066C88.5986 39.6369 86.9948 40.002 85.0774 40.002C83.1252 40.002 81.5124 39.6866 80.2389 39.0558C78.929 38.397 77.8447 37.354 77.1267 36.0621C76.3242 34.6972 75.9229 32.988 75.9229 30.9347V30.9347ZM81.2724 30.9602C81.2724 32.7335 81.595 34.0068 82.2401 34.7803C82.8853 35.5537 83.7704 35.9411 84.8955 35.9424C86.0452 35.9424 86.9348 35.5635 87.5645 34.8058C88.1941 34.0481 88.509 32.687 88.509 30.7226C88.509 29.0698 88.1806 27.8618 87.5238 27.0988C86.8671 26.3359 85.9755 25.955 84.8491 25.9563C84.359 25.9372 83.8711 26.031 83.4219 26.2305C82.9727 26.4301 82.574 26.7303 82.2556 27.1087C81.5988 27.8939 81.2711 29.1777 81.2724 30.9602V30.9602Z" fill="black"/>
<path d="M93.303 22.146H98.6525V35.3789H107V39.6977H93.303V22.146Z" fill="black"/>
</g>
<defs>
<clipPath id="clip0_40_144">
<rect width="107" height="40" fill="white"/>
</clipPath>
</defs>
</svg>
