<svg width="85" height="32" viewBox="0 0 85 32" fill="none" xmlns="http://www.w3.org/2000/svg">
<g clip-path="url(#clip0_212_4521)">
<path d="M42.3363 10.4379L46.3783 10.1788C46.4665 10.8499 46.6448 11.3608 46.9134 11.7115C47.3521 12.28 47.9773 12.5643 48.7891 12.5643C49.3949 12.5643 49.8623 12.4193 50.1913 12.1293C50.342 12.0088 50.4643 11.8555 50.5495 11.6805C50.6346 11.5055 50.6803 11.3133 50.6833 11.1179C50.6808 10.9306 50.6382 10.7461 50.5585 10.5773C50.4788 10.4086 50.364 10.2597 50.222 10.1411C49.9145 9.85421 49.1894 9.58252 48.0465 9.32602C46.183 8.89886 44.8541 8.33036 44.0598 7.62052C43.6732 7.28979 43.3646 6.87439 43.1567 6.40514C42.9488 5.93589 42.8471 5.42484 42.859 4.90993C42.8619 4.18228 43.076 3.47184 43.474 2.86836C43.9286 2.18818 44.5707 1.66127 45.319 1.35445C46.139 0.986965 47.2665 0.803223 48.7015 0.803223C50.4583 0.803223 51.798 1.1372 52.7204 1.80517C53.6429 2.47313 54.1918 3.53475 54.3671 4.99002L50.3619 5.22873C50.2594 4.60055 50.036 4.14094 49.6916 3.84988C49.3472 3.55883 48.8757 3.41382 48.2771 3.41487C47.7836 3.41487 47.4115 3.52323 47.1624 3.73681C47.0448 3.82922 46.9497 3.9482 46.8846 4.08443C46.8195 4.22067 46.7862 4.37045 46.7873 4.52203C46.791 4.63966 46.8206 4.75493 46.8738 4.85932C46.927 4.9637 47.0026 5.05453 47.0948 5.12508C47.2947 5.3104 47.7697 5.48314 48.52 5.64333C50.3773 6.05164 51.7098 6.46519 52.5175 6.88398C53.3252 7.30276 53.9094 7.82153 54.2702 8.44029C54.6384 9.06797 54.8285 9.78788 54.8191 10.5196C54.8235 11.4055 54.5693 12.2727 54.0888 13.0103C53.5887 13.7793 52.8773 14.3803 52.044 14.7378C51.1676 15.1304 50.0637 15.3267 48.7322 15.3267C46.3942 15.3267 44.7747 14.8671 43.8737 13.9478C42.9728 13.0286 42.4603 11.8586 42.3363 10.4379ZM0.964005 15.0911V1.04036H8.04567C9.35869 1.04036 10.3622 1.155 11.0561 1.38429C11.7396 1.60729 12.3305 2.05723 12.735 2.66263C13.1752 3.33458 13.3993 4.13003 13.3761 4.9382C13.394 5.64346 13.2239 6.34042 12.8841 6.95465C12.5581 7.52405 12.0964 7.99999 11.5419 8.33821C11.0758 8.60084 10.5727 8.78836 10.0506 8.89415C10.4413 9.01167 10.8135 9.18566 11.156 9.41082C11.4105 9.62693 11.6396 9.87252 11.8387 10.1426C12.0626 10.4111 12.2608 10.7009 12.4306 11.008L14.4877 15.0911H9.68617L7.41684 10.7928C7.12882 10.2369 6.87257 9.87567 6.6481 9.70921C6.34221 9.49268 5.9778 9.37904 5.60568 9.38412H5.22746V15.0911H0.964005ZM5.22746 6.73008H7.02324C7.40329 6.70109 7.77998 6.63696 8.14868 6.53848C8.42421 6.48449 8.66995 6.32705 8.83748 6.09719C9.01464 5.865 9.10901 5.57805 9.105 5.2837C9.11656 5.08828 9.08451 4.89274 9.01127 4.71182C8.93802 4.53091 8.8255 4.36935 8.68219 4.23935C8.40134 3.99646 7.87296 3.87501 7.09704 3.87501H5.22746V6.73008ZM0 27.1144L4.04205 26.8569C4.1302 27.528 4.30855 28.0389 4.5771 28.3896C5.01067 28.9581 5.63745 29.2424 6.45745 29.2424C7.06322 29.2424 7.53061 29.0969 7.85964 28.8058C8.01031 28.6854 8.1327 28.5321 8.21784 28.3571C8.30297 28.1821 8.34868 27.9898 8.35163 27.7944C8.34892 27.6071 8.30625 27.4227 8.22659 27.254C8.14692 27.0853 8.03219 26.9364 7.89039 26.8176C7.58289 26.5307 6.85771 26.2596 5.71484 26.0041C3.85141 25.5749 2.5225 25.0064 1.72814 24.2986C1.34163 23.9675 1.03302 23.5518 0.825155 23.0823C0.617295 22.6128 0.515516 22.1016 0.527358 21.5865C0.530761 20.8589 0.744731 20.1486 1.14235 19.5449C1.59695 18.8647 2.2391 18.3378 2.98734 18.031C3.80733 17.6635 4.93482 17.4798 6.36981 17.4798C8.12665 17.4798 9.46631 17.8137 10.3888 18.4817C11.3113 19.1497 11.8602 20.2113 12.0355 21.6666L8.03798 21.9068C7.93549 21.2787 7.71204 20.8185 7.36764 20.5264C7.02324 20.2343 6.55226 20.0909 5.95469 20.0961C5.46167 20.0961 5.09011 20.2008 4.84001 20.4102C4.72236 20.5026 4.62727 20.6216 4.56218 20.7578C4.49709 20.8941 4.46378 21.0438 4.46486 21.1954C4.46837 21.3133 4.49783 21.4289 4.55107 21.5336C4.6043 21.6383 4.67994 21.7293 4.77236 21.8001C4.97223 21.9854 5.44732 22.1576 6.19761 22.3167C8.0549 22.725 9.38739 23.1386 10.1951 23.5574C11.0028 23.9762 11.587 24.4949 11.9478 25.1137C12.3158 25.7415 12.5058 26.4613 12.4967 27.193C12.5013 28.0789 12.247 28.9461 11.7664 29.6837C11.2663 30.4527 10.5549 31.0537 9.72153 31.4112C8.84517 31.8038 7.74125 32.0001 6.40979 32.0001C4.07178 32.0001 2.45229 31.5405 1.55132 30.6212C0.650357 29.702 0.133249 28.5331 0 27.1144ZM25.061 26.0135L28.7848 27.1631C28.5789 28.128 28.176 29.0378 27.6025 29.8329C27.0799 30.5354 26.3925 31.0922 25.6038 31.452C24.8063 31.8153 23.7916 31.9969 22.5596 31.9969C21.0651 31.9969 19.8444 31.7755 18.8973 31.3326C17.9502 30.8898 17.1302 30.1093 16.4373 28.9911C15.7485 27.874 15.4046 26.4444 15.4056 24.7022C15.4056 22.3801 16.0104 20.5945 17.2199 19.3454C18.4293 18.0964 20.1411 17.4724 22.3551 17.4735C24.0883 17.4735 25.45 17.8315 26.4402 18.5477C27.4303 19.2638 28.1663 20.3631 28.648 21.8456L24.8965 22.6983C24.8084 22.3641 24.6694 22.0461 24.4845 21.7561C24.2573 21.4338 23.9585 21.1712 23.6127 20.9897C23.2544 20.8073 22.8584 20.7152 22.4581 20.7212C21.4956 20.7212 20.7581 21.1169 20.2456 21.9084C19.8561 22.4958 19.6619 23.4176 19.6629 24.674C19.6629 26.2297 19.8946 27.2966 20.3579 27.8745C20.8212 28.4524 21.4715 28.7409 22.3089 28.7398C23.1207 28.7398 23.7357 28.5069 24.1539 28.041C24.5721 27.5751 24.8745 26.8993 25.061 26.0135ZM32.0582 17.7169H36.3062V22.6292H40.9494V17.7169H45.216V31.7614H40.9494V26.0842H36.3062V31.7661H32.0582V17.7169ZM47.8605 24.7478C47.8605 22.457 48.4857 20.6719 49.7362 19.3926C50.9867 18.1132 52.7292 17.4745 54.9636 17.4766C57.2514 17.4766 59.0144 18.1048 60.2526 19.3612C61.4908 20.6175 62.1114 22.3748 62.1145 24.6331C62.1145 26.2758 61.8439 27.6222 61.3027 28.6723C60.7761 29.7086 59.96 30.5618 58.958 31.1238C57.933 31.708 56.659 32.0001 55.1358 32.0001C53.586 32.0001 52.3048 31.7478 51.2921 31.2431C50.2517 30.7165 49.3907 29.8819 48.8214 28.8482C48.1797 27.7573 47.8594 26.3905 47.8605 24.7478ZM52.1085 24.7682C52.1085 26.1868 52.3648 27.2055 52.8773 27.8243C53.3898 28.443 54.0919 28.7524 54.9836 28.7524C55.8969 28.7524 56.6036 28.4493 57.1038 27.8431C57.604 27.2369 57.8541 26.1481 57.8541 24.5766C57.8541 23.2543 57.5927 22.2879 57.07 21.6776C56.5473 21.0672 55.839 20.7625 54.9452 20.7636C54.5566 20.7493 54.1698 20.8249 53.8139 20.9848C53.4579 21.1447 53.1419 21.3848 52.8896 21.687C52.3699 22.3152 52.1096 23.3422 52.1085 24.7682Z" fill="black"/>
<path d="M60.3125 24.7477C60.3125 22.457 60.9377 20.6719 62.1882 19.3925C63.4387 18.1131 65.1812 17.4745 67.4157 17.4766C69.7055 17.4766 71.469 18.1047 72.7062 19.3611C73.9434 20.6175 74.5619 22.3753 74.5619 24.6346C74.5619 26.2773 74.2919 27.6237 73.7517 28.6738C73.2246 29.7098 72.4086 30.5629 71.407 31.1253C70.382 31.7095 69.108 32.0016 67.5848 32.0016C66.034 32.0016 64.7528 31.7493 63.7411 31.2446C62.7005 30.7176 61.8392 29.8832 61.2688 28.8497C60.6313 27.7577 60.3125 26.3904 60.3125 24.7477ZM64.5621 24.7681C64.5621 26.1868 64.8184 27.2055 65.3309 27.8242C65.8434 28.443 66.5465 28.7529 67.4403 28.7539C68.3536 28.7539 69.0603 28.4508 69.5605 27.8446C70.0607 27.2384 70.3108 26.1496 70.3108 24.5781C70.3108 23.2558 70.0499 22.2895 69.5282 21.6791C69.0065 21.0687 68.2982 20.764 67.4034 20.7651C67.0141 20.7498 66.6265 20.8248 66.2697 20.9844C65.9128 21.1441 65.5961 21.3843 65.3432 21.6869C64.8214 22.3151 64.5611 23.3422 64.5621 24.7681Z" fill="black"/>
<path d="M74.1191 17.7168H78.3688V28.3032H84.9999V31.7581H74.1191V17.7168Z" fill="black"/>
</g>
<defs>
<clipPath id="clip0_212_4521">
<rect width="85" height="32" fill="white"/>
</clipPath>
</defs>
</svg>
