<svg width="41" height="41" viewBox="0 0 41 41" fill="none" xmlns="http://www.w3.org/2000/svg">
<path d="M26.6035 29.9172C28.2604 29.9172 29.6035 28.5741 29.6035 26.9172C29.6035 25.2604 28.2604 23.9172 26.6035 23.9172C24.9467 23.9172 23.6035 25.2604 23.6035 26.9172C23.6035 28.5741 24.9467 29.9172 26.6035 29.9172Z" stroke="#FF0E00" stroke-width="2" stroke-linecap="round" stroke-linejoin="round"/>
<path d="M14.6035 17.9172C16.2604 17.9172 17.6035 16.5741 17.6035 14.9172C17.6035 13.2604 16.2604 11.9172 14.6035 11.9172C12.9467 11.9172 11.6035 13.2604 11.6035 14.9172C11.6035 16.5741 12.9467 17.9172 14.6035 17.9172Z" stroke="#FF0E00" stroke-width="2" stroke-linecap="round" stroke-linejoin="round"/>
<path d="M21.6035 14.9172H24.6035C25.1339 14.9172 25.6427 15.1279 26.0177 15.503C26.3928 15.8781 26.6035 16.3868 26.6035 16.9172V23.9172" stroke="#FF0E00" stroke-width="2" stroke-linecap="round" stroke-linejoin="round"/>
<path d="M14.6035 17.9172L14.6035 29.9172" stroke="#FF0E00" stroke-width="2" stroke-linecap="round" stroke-linejoin="round"/>
</svg>
