<svg width="40" height="40" viewBox="0 0 40 40" fill="none" xmlns="http://www.w3.org/2000/svg">
<path d="M24.1565 12.4227C23.1309 11.6998 20.6239 10.512 17.5719 10.512C14.4316 10.512 12.1873 11.3688 10.8574 12.4227M22.1128 26.1528L23.1239 28C23.1239 28 27.9593 27.3887 31.1437 23.9475C30.6015 15.5222 27.4423 11.2301 27.4423 11.2301C27.4423 11.2301 24.6138 8.39703 21.2733 8.15887L20.2084 10.6702M7.70136 22.7914C9.69892 24.2077 12.7136 25.6818 17.5718 25.6818C22.4299 25.6818 25.4446 24.2077 27.4421 22.7914M15.0133 10.6702L13.8704 8.15887C10.3658 8.46926 7.70136 11.2301 7.70136 11.2301C7.70136 11.2301 4.54219 15.5222 4 23.9475C7.1844 27.3886 12.0197 28 12.0197 28L13.0308 26.1528M13.157 20.9902C11.8441 20.9902 10.7798 19.9549 10.7798 18.6778C10.7798 17.4008 11.8441 16.3657 13.157 16.3657C14.4699 16.3657 15.5341 17.4009 15.5341 18.678C15.5341 19.9551 14.4699 20.9902 13.157 20.9902ZM21.9867 20.9902C20.6738 20.9902 19.6095 19.9549 19.6095 18.6778C19.6095 17.4008 20.6738 16.3655 21.9867 16.3655C23.2995 16.3655 24.3638 17.4008 24.3638 18.6778C24.3638 19.9549 23.2995 20.9902 21.9867 20.9902Z" stroke="#33FF00" stroke-width="1.51113" stroke-miterlimit="1" stroke-linecap="round" stroke-linejoin="round"/>
</svg>
