<svg width="40" height="40" viewBox="0 0 40 40" fill="none" xmlns="http://www.w3.org/2000/svg">
<path d="M25.5646 14.8681C24.62 14.2123 22.3111 13.1348 19.5001 13.1348C16.6078 13.1348 14.5407 13.9121 13.3158 14.8681M23.6824 27.3242L24.6136 29C24.6136 29 29.0671 28.4455 32 25.3235C31.5006 17.68 28.591 13.7862 28.591 13.7862C28.591 13.7862 25.9858 11.2161 22.9091 11L21.9283 13.2783M10.409 24.2748C12.2489 25.5596 15.0255 26.8969 19.4999 26.8969C23.9744 26.8969 26.751 25.5596 28.5908 24.2748M17.1435 13.2783L16.0909 11C12.863 11.2816 10.409 13.7862 10.409 13.7862C10.409 13.7862 7.49937 17.68 7 25.3235C9.93292 28.4453 14.3864 29 14.3864 29L15.3176 27.3242M15.4338 22.6406C14.2246 22.6406 13.2444 21.7014 13.2444 20.5429C13.2444 19.3843 14.2246 18.4453 15.4338 18.4453C16.643 18.4453 17.6232 19.3845 17.6232 20.543C17.6232 21.7016 16.643 22.6406 15.4338 22.6406ZM23.5662 22.6406C22.357 22.6406 21.3768 21.7014 21.3768 20.5429C21.3768 19.3843 22.357 18.4451 23.5662 18.4451C24.7754 18.4451 25.7556 19.3843 25.7556 20.5429C25.7556 21.7014 24.7754 22.6406 23.5662 22.6406Z" stroke="#FF0E00" stroke-width="1.81" stroke-miterlimit="1" stroke-linecap="round" stroke-linejoin="round"/>
</svg>
