<svg width="40" height="40" viewBox="0 0 40 40" fill="none" xmlns="http://www.w3.org/2000/svg">
<path d="M33.3442 16.4001L32.0583 15.6746L20.4852 9.07915H20.3437C20.2649 9.04495 20.1831 9.01845 20.0994 9H19.8551H19.6236C19.5358 9.01847 19.4497 9.04495 19.3664 9.07915H19.225L7.65189 15.6746C7.45399 15.7897 7.28938 15.9565 7.17486 16.1581C7.06034 16.3597 7 16.5889 7 16.8222C7 17.0556 7.06034 17.2847 7.17486 17.4864C7.28938 17.688 7.45399 17.8548 7.65189 17.9698L10.8538 19.7902V26.0427C10.8538 27.0923 11.2602 28.0988 11.9837 28.8409C12.7071 29.5831 13.6884 30 14.7115 30H24.9987C26.0218 30 27.003 29.5831 27.7265 28.8409C28.45 28.0988 28.8564 27.0923 28.8564 26.0427V19.7902L31.4282 18.3128V22.0854C31.4282 22.4353 31.5637 22.7708 31.8048 23.0182C32.046 23.2655 32.3731 23.4045 32.7141 23.4045C33.0551 23.4045 33.3822 23.2655 33.6234 23.0182C33.8645 22.7708 34 22.4353 34 22.0854V17.5477C33.9996 17.314 33.9387 17.0846 33.8234 16.8829C33.7082 16.6813 33.5428 16.5147 33.3442 16.4001ZM26.2846 26.0427C26.2846 26.3926 26.1491 26.7281 25.908 26.9755C25.6668 27.2228 25.3397 27.3618 24.9987 27.3618H14.7115C14.3704 27.3618 14.0434 27.2228 13.8022 26.9755C13.5611 26.7281 13.4256 26.3926 13.4256 26.0427V21.2544L19.225 24.5521L19.4179 24.6313H19.5336C19.6403 24.6451 19.7484 24.6451 19.8551 24.6313C19.9618 24.6451 20.0698 24.6451 20.1766 24.6313H20.2923C20.3606 24.6165 20.4258 24.5897 20.4852 24.5521L26.2846 21.2544V26.0427ZM19.8551 21.9008L10.9309 16.809L19.8551 11.7173L28.7792 16.809L19.8551 21.9008Z" fill="#FF0E00"/>
</svg>
