<svg width="41" height="41" viewBox="0 0 41 41" fill="none" xmlns="http://www.w3.org/2000/svg">
<path d="M30.4951 14.4946C30.4951 13.3946 29.5951 12.4946 28.4951 12.4946H12.4951C11.3951 12.4946 10.4951 13.3946 10.4951 14.4946M30.4951 14.4946V26.4946C30.4951 27.5946 29.5951 28.4946 28.4951 28.4946H12.4951C11.3951 28.4946 10.4951 27.5946 10.4951 26.4946V14.4946M30.4951 14.4946L20.4951 21.4946L10.4951 14.4946" stroke="#454CAB" stroke-width="2" stroke-linecap="round" stroke-linejoin="round"/>
<path d="M30.4951 14.4946C30.4951 13.3946 29.5951 12.4946 28.4951 12.4946H12.4951C11.3951 12.4946 10.4951 13.3946 10.4951 14.4946M30.4951 14.4946V26.4946C30.4951 27.5946 29.5951 28.4946 28.4951 28.4946H12.4951C11.3951 28.4946 10.4951 27.5946 10.4951 26.4946V14.4946M30.4951 14.4946L20.4951 21.4946L10.4951 14.4946" stroke="white" stroke-width="2" stroke-linecap="round" stroke-linejoin="round"/>
<path d="M30.4951 14.4946C30.4951 13.3946 29.5951 12.4946 28.4951 12.4946H12.4951C11.3951 12.4946 10.4951 13.3946 10.4951 14.4946M30.4951 14.4946V26.4946C30.4951 27.5946 29.5951 28.4946 28.4951 28.4946H12.4951C11.3951 28.4946 10.4951 27.5946 10.4951 26.4946V14.4946M30.4951 14.4946L20.4951 21.4946L10.4951 14.4946" stroke="#FF0E00" stroke-width="2" stroke-linecap="round" stroke-linejoin="round"/>
</svg>
