<svg width="40" height="40" viewBox="0 0 40 40" fill="none" xmlns="http://www.w3.org/2000/svg">
<path d="M29.8881 24.9201V27.9201C29.8892 28.1986 29.8322 28.4743 29.7206 28.7294C29.6091 28.9846 29.4454 29.2137 29.2402 29.402C29.035 29.5902 28.7927 29.7336 28.5289 29.8228C28.265 29.912 27.9855 29.9452 27.7081 29.9201C24.631 29.5857 21.6751 28.5342 19.0781 26.8501C16.6619 25.3148 14.6135 23.2663 13.0781 20.8501C11.3881 18.2413 10.3364 15.2711 10.0081 12.1801C9.98313 11.9036 10.016 11.6249 10.1046 11.3617C10.1932 11.0986 10.3357 10.8568 10.5229 10.6517C10.7101 10.4466 10.9379 10.2828 11.1919 10.1706C11.4459 10.0584 11.7205 10.0004 11.9981 10.0001H14.9981C15.4834 9.99532 15.9539 10.1672 16.3219 10.4836C16.6898 10.8001 16.9302 11.2395 16.9981 11.7201C17.1247 12.6802 17.3596 13.6228 17.6981 14.5301C17.8327 14.888 17.8618 15.277 17.782 15.651C17.7023 16.0249 17.517 16.3682 17.2481 16.6401L15.9781 17.9101C17.4017 20.4136 19.4746 22.4865 21.9781 23.9101L23.2481 22.6401C23.52 22.3712 23.8633 22.1859 24.2372 22.1062C24.6112 22.0264 25.0002 22.0556 25.3581 22.1901C26.2654 22.5286 27.2081 22.7635 28.1681 22.8901C28.6539 22.9586 29.0975 23.2033 29.4146 23.5776C29.7318 23.9519 29.9003 24.4297 29.8881 24.9201Z" stroke="#33FF00" stroke-width="2" stroke-linecap="round" stroke-linejoin="round"/>
</svg>
