<svg width="40" height="40" viewBox="0 0 40 40" fill="none" xmlns="http://www.w3.org/2000/svg">
<path d="M29.3715 10.0019C29.0872 10.0152 28.8194 10.0989 28.5814 10.1926H28.5781C28.3368 10.2896 27.1896 10.7781 25.4473 11.5176C23.705 12.2605 21.4437 13.2241 19.1989 14.1811C14.7159 16.0917 10.309 17.9722 10.309 17.9722L10.3619 17.9521C10.3619 17.9521 10.0577 18.0525 9.74036 18.2733C9.57836 18.3804 9.39984 18.5276 9.24445 18.7585C9.08907 18.9894 8.96344 19.344 9.00973 19.7088C9.08576 20.3278 9.48249 20.6992 9.76681 20.9033C10.0544 21.1108 10.3288 21.2078 10.3288 21.2078H10.3354L14.468 22.6165C14.6531 23.2188 15.7276 26.7924 15.9854 27.6155C16.1375 28.1074 16.2863 28.4152 16.4714 28.6494C16.5607 28.7699 16.6665 28.8703 16.7921 28.9506C16.8417 28.9807 16.8946 29.0041 16.9475 29.0242C16.964 29.0342 16.9806 29.0376 17.0004 29.0409L16.9574 29.0309C16.9706 29.0342 16.9806 29.0443 16.9905 29.0476C17.0235 29.0576 17.0467 29.061 17.0897 29.0677C17.7442 29.2684 18.2699 28.8569 18.2699 28.8569L18.2997 28.8335L20.7395 26.5849L24.8291 29.7603L24.9216 29.8005C25.7746 30.1786 26.6375 29.9678 27.0937 29.5964C27.5532 29.2216 27.7318 28.7431 27.7318 28.7431L27.7615 28.6662L30.9221 12.2805C31.0113 11.8757 31.0345 11.4975 30.9353 11.1295C30.8361 10.7614 30.5816 10.4168 30.2741 10.2327C29.9633 10.0454 29.6559 9.98848 29.3715 10.0019ZM29.2856 11.7585C29.2823 11.8121 29.2922 11.8054 29.2691 11.9091V11.9192L26.1383 28.1341C26.125 28.1576 26.1019 28.2077 26.0391 28.2579C25.9729 28.3115 25.9201 28.3449 25.6457 28.2345L20.6436 24.3531L17.6219 27.1404L18.2567 23.0381C18.2567 23.0381 26.092 15.6467 26.4292 15.3288C26.7664 15.0109 26.654 14.944 26.654 14.944C26.6771 14.5558 26.1449 14.8302 26.1449 14.8302L15.84 21.2915L15.8367 21.2747L10.8975 19.5917V19.5883C10.8942 19.5883 10.8875 19.585 10.8842 19.585C10.8875 19.585 10.9107 19.5749 10.9107 19.5749L10.9371 19.5615L10.9636 19.5515C10.9636 19.5515 15.3738 17.671 19.8568 15.7604C22.1016 14.8035 24.3629 13.8398 26.1019 13.097C27.8409 12.3575 29.1269 11.8154 29.1996 11.7853C29.2691 11.7585 29.236 11.7585 29.2856 11.7585Z" fill="#33FF00"/>
</svg>
