<svg width="40" height="40" viewBox="0 0 40 40" fill="none" xmlns="http://www.w3.org/2000/svg">
<path d="M19.6608 15.3005C17.4193 16.2558 15.1959 17.2035 13.533 17.9125L11.5266 18.7679L10.9657 19.007L10.8181 19.07L10.7803 19.0861L10.7767 19.0876L10.7597 19.0941L10.735 19.1035L10.7114 19.1154L10.6849 19.1288L10.8842 19.5227V19.585V19.5883H10.3975V19.5917V19.9495L10.7362 20.0649L15.4021 21.6549L15.4903 22.1009L16.1056 21.7151L24.5301 16.4329L21.8734 18.9389L19.1431 21.5145L18.2509 22.3562L18.0017 22.5913L17.9361 22.6532L17.9193 22.669L17.915 22.673L17.9139 22.6741L17.9137 22.6743C17.9136 22.6744 17.9136 22.6744 18.2567 23.0381L17.9136 22.6744L17.7888 22.7921L17.7626 22.9616L17.1278 27.0639L16.9197 28.4088C16.9036 28.391 16.8881 28.372 16.8732 28.3517L16.8685 28.3455L16.8637 28.3394C16.7326 28.1736 16.6065 27.9314 16.4631 27.4678L16.4626 27.466C16.3004 26.9482 15.8174 25.3498 15.4341 24.0815C15.2076 23.3316 15.0159 22.6971 14.9459 22.4696L14.8709 22.2256L14.6293 22.1432L10.4968 20.7345L10.4579 20.7213C10.4363 20.7122 10.407 20.6994 10.3721 20.6826C10.2865 20.6415 10.1731 20.5799 10.0593 20.4978L10.0584 20.4971C9.82189 20.3274 9.55717 20.0644 9.506 19.6478L9.50575 19.6458C9.47781 19.4256 9.55633 19.1906 9.65926 19.0377C9.76795 18.8762 9.8921 18.7724 10.0161 18.6904L10.0161 18.6905L10.0259 18.6837C10.1536 18.5949 10.2811 18.5288 10.3774 18.4849C10.4234 18.464 10.4609 18.4487 10.4861 18.439L10.4864 18.4396L10.5393 18.4196L10.5387 18.4178L10.5558 18.4105L10.7033 18.3475L11.2638 18.1084L13.269 17.253C14.9311 16.5441 17.1535 15.5963 19.3949 14.6411L19.395 14.641C20.4542 14.1895 21.5172 13.7364 22.5276 13.3057C23.6582 12.8238 24.7229 12.37 25.6429 11.9778C25.9989 11.8267 26.3297 11.6862 26.6327 11.5575C27.6864 11.1101 28.4044 10.8052 28.682 10.6903L28.7645 10.6578C28.9819 10.5723 29.1906 10.5109 29.3951 10.5013C29.5907 10.4921 29.7982 10.5297 30.0159 10.6609L30.0173 10.6618C30.2064 10.7749 30.3848 11.0084 30.4525 11.2596C30.5232 11.5219 30.5133 11.8121 30.4338 12.1729L30.4336 12.1728L30.4311 12.1858L27.279 28.5276L27.2654 28.5628L27.2654 28.5628L27.2646 28.565L27.2644 28.5654L27.2644 28.5654L27.2619 28.5715C27.2588 28.5789 27.253 28.5922 27.2444 28.6105C27.2272 28.647 27.199 28.7022 27.1588 28.7678C27.0774 28.9006 26.9527 29.0661 26.778 29.2086C26.466 29.4626 25.8031 29.6443 25.1243 29.3434L25.1206 29.3418L25.0859 29.3267L21.0462 26.19L20.7119 25.9304L20.4007 26.2172L17.9751 28.4526L17.9654 28.4603L17.961 28.4634C17.9539 28.4683 17.9406 28.4772 17.9217 28.4885C17.8834 28.5113 17.8256 28.5417 17.7539 28.5679C17.6097 28.6205 17.4301 28.6491 17.2363 28.5897L17.202 28.5792L17.1696 28.5741L17.1678 28.573L17.1249 28.5567C17.0913 28.544 17.0699 28.5338 17.0557 28.5256C17.0177 28.5008 16.9826 28.4727 16.9499 28.4405L17.9609 27.5079L20.6715 25.0076L25.3391 28.6295L25.3943 28.6723L25.459 28.6984C25.6043 28.7569 25.7672 28.8113 25.9317 28.8076C26.1556 28.8025 26.294 28.6949 26.3526 28.6474C26.4248 28.5895 26.4775 28.5288 26.5163 28.4736C26.5505 28.425 26.5804 28.368 26.5736 28.38L26.6137 28.309L26.6292 28.2289L29.76 12.0139L29.7691 11.967V11.9604C29.7767 11.9201 29.7823 11.8799 29.7842 11.838C29.7853 11.8146 29.785 11.7919 29.7849 11.7857L29.8174 11.2585H29.2856L29.2639 11.2586C29.2567 11.2587 29.2395 11.259 29.219 11.2607C29.1965 11.2626 29.1622 11.2668 29.1219 11.278C29.0795 11.2897 29.0464 11.3046 29.0243 11.3158C29.0212 11.3173 29.018 11.319 29.015 11.3206L29.0084 11.3233C28.933 11.3546 27.6445 11.8977 25.9062 12.6368L25.9055 12.6372C24.4489 13.2594 22.6258 14.0365 20.7527 14.835C20.3898 14.9897 20.0251 15.1451 19.6608 15.3005ZM19.6608 15.3005L19.8568 15.7604M19.6608 15.3005L19.8568 15.7604M19.8568 15.7604C20.221 15.6052 20.5857 15.4497 20.9485 15.2951C22.8217 14.4966 24.6451 13.7193 26.1019 13.097C27.26 12.6045 28.2173 12.1995 28.749 11.9751L10.8842 19.085M19.8568 15.7604C16.371 17.246 12.9291 18.7135 11.5705 19.2928L11.3975 19.2338V19.0883H10.9423C10.9408 19.0881 10.9393 19.088 10.9377 19.0878C10.9233 19.0863 10.9052 19.085 10.8842 19.085M10.8842 19.085C10.841 19.085 10.8061 19.0908 10.7899 19.094M10.8842 19.085V19.3425L10.7899 19.094M10.7899 19.094C10.7869 19.0946 10.7845 19.0951 10.7828 19.0954L10.7826 19.0955C10.7782 19.0964 10.7741 19.0973 10.7704 19.0982L10.8842 19.3654M17.1242 28.5587C17.135 28.5623 17.1473 28.5669 17.1605 28.5727L17.1579 28.5723C17.1476 28.5679 17.1362 28.5635 17.1239 28.5593C17.1206 28.5581 17.1172 28.557 17.1137 28.5559L17.1138 28.5554C17.1171 28.5564 17.1205 28.5575 17.1242 28.5587Z" stroke="#454CAB"/>
<path d="M19.6608 15.3005C17.4193 16.2558 15.1959 17.2035 13.533 17.9125L11.5266 18.7679L10.9657 19.007L10.8181 19.07L10.7803 19.0861L10.7767 19.0876L10.7597 19.0941L10.735 19.1035L10.7114 19.1154L10.6849 19.1288L10.8842 19.5227V19.585V19.5883H10.3975V19.5917V19.9495L10.7362 20.0649L15.4021 21.6549L15.4903 22.1009L16.1056 21.7151L24.5301 16.4329L21.8734 18.9389L19.1431 21.5145L18.2509 22.3562L18.0017 22.5913L17.9361 22.6532L17.9193 22.669L17.915 22.673L17.9139 22.6741L17.9137 22.6743C17.9136 22.6744 17.9136 22.6744 18.2567 23.0381L17.9136 22.6744L17.7888 22.7921L17.7626 22.9616L17.1278 27.0639L16.9197 28.4088C16.9036 28.391 16.8881 28.372 16.8732 28.3517L16.8685 28.3455L16.8637 28.3394C16.7326 28.1736 16.6065 27.9314 16.4631 27.4678L16.4626 27.466C16.3004 26.9482 15.8174 25.3498 15.4341 24.0815C15.2076 23.3316 15.0159 22.6971 14.9459 22.4696L14.8709 22.2256L14.6293 22.1432L10.4968 20.7345L10.4579 20.7213C10.4363 20.7122 10.407 20.6994 10.3721 20.6826C10.2865 20.6415 10.1731 20.5799 10.0593 20.4978L10.0584 20.4971C9.82189 20.3274 9.55717 20.0644 9.506 19.6478L9.50575 19.6458C9.47781 19.4256 9.55633 19.1906 9.65926 19.0377C9.76795 18.8762 9.8921 18.7724 10.0161 18.6904L10.0161 18.6905L10.0259 18.6837C10.1536 18.5949 10.2811 18.5288 10.3774 18.4849C10.4234 18.464 10.4609 18.4487 10.4861 18.439L10.4864 18.4396L10.5393 18.4196L10.5387 18.4178L10.5558 18.4105L10.7033 18.3475L11.2638 18.1084L13.269 17.253C14.9311 16.5441 17.1535 15.5963 19.3949 14.6411L19.395 14.641C20.4542 14.1895 21.5172 13.7364 22.5276 13.3057C23.6582 12.8238 24.7229 12.37 25.6429 11.9778C25.9989 11.8267 26.3297 11.6862 26.6327 11.5575C27.6864 11.1101 28.4044 10.8052 28.682 10.6903L28.7645 10.6578C28.9819 10.5723 29.1906 10.5109 29.3951 10.5013C29.5907 10.4921 29.7982 10.5297 30.0159 10.6609L30.0173 10.6618C30.2064 10.7749 30.3848 11.0084 30.4525 11.2596C30.5232 11.5219 30.5133 11.8121 30.4338 12.1729L30.4336 12.1728L30.4311 12.1858L27.279 28.5276L27.2654 28.5628L27.2654 28.5628L27.2646 28.565L27.2644 28.5654L27.2644 28.5654L27.2619 28.5715C27.2588 28.5789 27.253 28.5922 27.2444 28.6105C27.2272 28.647 27.199 28.7022 27.1588 28.7678C27.0774 28.9006 26.9527 29.0661 26.778 29.2086C26.466 29.4626 25.8031 29.6443 25.1243 29.3434L25.1206 29.3418L25.0859 29.3267L21.0462 26.19L20.7119 25.9304L20.4007 26.2172L17.9751 28.4526L17.9654 28.4603L17.961 28.4634C17.9539 28.4683 17.9406 28.4772 17.9217 28.4885C17.8834 28.5113 17.8256 28.5417 17.7539 28.5679C17.6097 28.6205 17.4301 28.6491 17.2363 28.5897L17.202 28.5792L17.1696 28.5741L17.1678 28.573L17.1249 28.5567C17.0913 28.544 17.0699 28.5338 17.0557 28.5256C17.0177 28.5008 16.9826 28.4727 16.9499 28.4405L17.9609 27.5079L20.6715 25.0076L25.3391 28.6295L25.3943 28.6723L25.459 28.6984C25.6043 28.7569 25.7672 28.8113 25.9317 28.8076C26.1556 28.8025 26.294 28.6949 26.3526 28.6474C26.4248 28.5895 26.4775 28.5288 26.5163 28.4736C26.5505 28.425 26.5804 28.368 26.5736 28.38L26.6137 28.309L26.6292 28.2289L29.76 12.0139L29.7691 11.967V11.9604C29.7767 11.9201 29.7823 11.8799 29.7842 11.838C29.7853 11.8146 29.785 11.7919 29.7849 11.7857L29.8174 11.2585H29.2856L29.2639 11.2586C29.2567 11.2587 29.2395 11.259 29.219 11.2607C29.1965 11.2626 29.1622 11.2668 29.1219 11.278C29.0795 11.2897 29.0464 11.3046 29.0243 11.3158C29.0212 11.3173 29.018 11.319 29.015 11.3206L29.0084 11.3233C28.933 11.3546 27.6445 11.8977 25.9062 12.6368L25.9055 12.6372C24.4489 13.2594 22.6258 14.0365 20.7527 14.835C20.3898 14.9897 20.0251 15.1451 19.6608 15.3005ZM19.6608 15.3005L19.8568 15.7604M19.6608 15.3005L19.8568 15.7604M19.8568 15.7604C20.221 15.6052 20.5857 15.4497 20.9485 15.2951C22.8217 14.4966 24.6451 13.7193 26.1019 13.097C27.26 12.6045 28.2173 12.1995 28.749 11.9751L10.8842 19.085M19.8568 15.7604C16.371 17.246 12.9291 18.7135 11.5705 19.2928L11.3975 19.2338V19.0883H10.9423C10.9408 19.0881 10.9393 19.088 10.9377 19.0878C10.9233 19.0863 10.9052 19.085 10.8842 19.085M10.8842 19.085C10.841 19.085 10.8061 19.0908 10.7899 19.094M10.8842 19.085V19.3425L10.7899 19.094M10.7899 19.094C10.7869 19.0946 10.7845 19.0951 10.7828 19.0954L10.7826 19.0955C10.7782 19.0964 10.7741 19.0973 10.7704 19.0982L10.8842 19.3654M17.1242 28.5587C17.135 28.5623 17.1473 28.5669 17.1605 28.5727L17.1579 28.5723C17.1476 28.5679 17.1362 28.5635 17.1239 28.5593C17.1206 28.5581 17.1172 28.557 17.1137 28.5559L17.1138 28.5554C17.1171 28.5564 17.1205 28.5575 17.1242 28.5587Z" stroke="white"/>
<path d="M19.6608 15.3005C17.4193 16.2558 15.1959 17.2035 13.533 17.9125L11.5266 18.7679L10.9657 19.007L10.8181 19.07L10.7803 19.0861L10.7767 19.0876L10.7597 19.0941L10.735 19.1035L10.7114 19.1154L10.6849 19.1288L10.8842 19.5227V19.585V19.5883H10.3975V19.5917V19.9495L10.7362 20.0649L15.4021 21.6549L15.4903 22.1009L16.1056 21.7151L24.5301 16.4329L21.8734 18.9389L19.1431 21.5145L18.2509 22.3562L18.0017 22.5913L17.9361 22.6532L17.9193 22.669L17.915 22.673L17.9139 22.6741L17.9137 22.6743C17.9136 22.6744 17.9136 22.6744 18.2567 23.0381L17.9136 22.6744L17.7888 22.7921L17.7626 22.9616L17.1278 27.0639L16.9197 28.4088C16.9036 28.391 16.8881 28.372 16.8732 28.3517L16.8685 28.3455L16.8637 28.3394C16.7326 28.1736 16.6065 27.9314 16.4631 27.4678L16.4626 27.466C16.3004 26.9482 15.8174 25.3498 15.4341 24.0815C15.2076 23.3316 15.0159 22.6971 14.9459 22.4696L14.8709 22.2256L14.6293 22.1432L10.4968 20.7345L10.4579 20.7213C10.4363 20.7122 10.407 20.6994 10.3721 20.6826C10.2865 20.6415 10.1731 20.5799 10.0593 20.4978L10.0584 20.4971C9.82189 20.3274 9.55717 20.0644 9.506 19.6478L9.50575 19.6458C9.47781 19.4256 9.55633 19.1906 9.65926 19.0377C9.76795 18.8762 9.8921 18.7724 10.0161 18.6904L10.0161 18.6905L10.0259 18.6837C10.1536 18.5949 10.2811 18.5288 10.3774 18.4849C10.4234 18.464 10.4609 18.4487 10.4861 18.439L10.4864 18.4396L10.5393 18.4196L10.5387 18.4178L10.5558 18.4105L10.7033 18.3475L11.2638 18.1084L13.269 17.253C14.9311 16.5441 17.1535 15.5963 19.3949 14.6411L19.395 14.641C20.4542 14.1895 21.5172 13.7364 22.5276 13.3057C23.6582 12.8238 24.7229 12.37 25.6429 11.9778C25.9989 11.8267 26.3297 11.6862 26.6327 11.5575C27.6864 11.1101 28.4044 10.8052 28.682 10.6903L28.7645 10.6578C28.9819 10.5723 29.1906 10.5109 29.3951 10.5013C29.5907 10.4921 29.7982 10.5297 30.0159 10.6609L30.0173 10.6618C30.2064 10.7749 30.3848 11.0084 30.4525 11.2596C30.5232 11.5219 30.5133 11.8121 30.4338 12.1729L30.4336 12.1728L30.4311 12.1858L27.279 28.5276L27.2654 28.5628L27.2654 28.5628L27.2646 28.565L27.2644 28.5654L27.2644 28.5654L27.2619 28.5715C27.2588 28.5789 27.253 28.5922 27.2444 28.6105C27.2272 28.647 27.199 28.7022 27.1588 28.7678C27.0774 28.9006 26.9527 29.0661 26.778 29.2086C26.466 29.4626 25.8031 29.6443 25.1243 29.3434L25.1206 29.3418L25.0859 29.3267L21.0462 26.19L20.7119 25.9304L20.4007 26.2172L17.9751 28.4526L17.9654 28.4603L17.961 28.4634C17.9539 28.4683 17.9406 28.4772 17.9217 28.4885C17.8834 28.5113 17.8256 28.5417 17.7539 28.5679C17.6097 28.6205 17.4301 28.6491 17.2363 28.5897L17.202 28.5792L17.1696 28.5741L17.1678 28.573L17.1249 28.5567C17.0913 28.544 17.0699 28.5338 17.0557 28.5256C17.0177 28.5008 16.9826 28.4727 16.9499 28.4405L17.9609 27.5079L20.6715 25.0076L25.3391 28.6295L25.3943 28.6723L25.459 28.6984C25.6043 28.7569 25.7672 28.8113 25.9317 28.8076C26.1556 28.8025 26.294 28.6949 26.3526 28.6474C26.4248 28.5895 26.4775 28.5288 26.5163 28.4736C26.5505 28.425 26.5804 28.368 26.5736 28.38L26.6137 28.309L26.6292 28.2289L29.76 12.0139L29.7691 11.967V11.9604C29.7767 11.9201 29.7823 11.8799 29.7842 11.838C29.7853 11.8146 29.785 11.7919 29.7849 11.7857L29.8174 11.2585H29.2856L29.2639 11.2586C29.2567 11.2587 29.2395 11.259 29.219 11.2607C29.1965 11.2626 29.1622 11.2668 29.1219 11.278C29.0795 11.2897 29.0464 11.3046 29.0243 11.3158C29.0212 11.3173 29.018 11.319 29.015 11.3206L29.0084 11.3233C28.933 11.3546 27.6445 11.8977 25.9062 12.6368L25.9055 12.6372C24.4489 13.2594 22.6258 14.0365 20.7527 14.835C20.3898 14.9897 20.0251 15.1451 19.6608 15.3005ZM19.6608 15.3005L19.8568 15.7604M19.6608 15.3005L19.8568 15.7604M19.8568 15.7604C20.221 15.6052 20.5857 15.4497 20.9485 15.2951C22.8217 14.4966 24.6451 13.7193 26.1019 13.097C27.26 12.6045 28.2173 12.1995 28.749 11.9751L10.8842 19.085M19.8568 15.7604C16.371 17.246 12.9291 18.7135 11.5705 19.2928L11.3975 19.2338V19.0883H10.9423C10.9408 19.0881 10.9393 19.088 10.9377 19.0878C10.9233 19.0863 10.9052 19.085 10.8842 19.085M10.8842 19.085C10.841 19.085 10.8061 19.0908 10.7899 19.094M10.8842 19.085V19.3425L10.7899 19.094M10.7899 19.094C10.7869 19.0946 10.7845 19.0951 10.7828 19.0954L10.7826 19.0955C10.7782 19.0964 10.7741 19.0973 10.7704 19.0982L10.8842 19.3654M17.1242 28.5587C17.135 28.5623 17.1473 28.5669 17.1605 28.5727L17.1579 28.5723C17.1476 28.5679 17.1362 28.5635 17.1239 28.5593C17.1206 28.5581 17.1172 28.557 17.1137 28.5559L17.1138 28.5554C17.1171 28.5564 17.1205 28.5575 17.1242 28.5587Z" stroke="#FF0E00"/>
</svg>
